<svg xmlns="http://www.w3.org/2000/svg" xmlns:xlink="http://www.w3.org/1999/xlink" width="37.812" height="37.812" viewBox="0 0 37.812 37.812">
  <defs>
    <style>
      .cls-1 {
        fill-rule: evenodd;
        filter: url(#filter);
      }
    </style>
    <filter id="filter" x="331.094" y="673.094" width="37.812" height="37.812" filterUnits="userSpaceOnUse">
      <feFlood result="flood" flood-color="#a1f1ff"/>
      <feComposite result="composite" operator="in" in2="SourceGraphic"/>
      <feBlend result="blend" in2="SourceGraphic"/>
    </filter>
  </defs>
  <path id="Cog_copy" data-name="Cog copy" class="cls-1" d="M368.9,694.441a1.26,1.26,0,0,1-1.26,1.26h-1.821a16.332,16.332,0,0,1-1.969,4.835l1.423,1.423a1.26,1.26,0,0,1,0,1.782l-3.564,3.564a1.26,1.26,0,0,1-1.782,0l-1.431-1.431a16.34,16.34,0,0,1-4.716,1.928v1.838a1.26,1.26,0,0,1-1.26,1.26h-5.04a1.26,1.26,0,0,1-1.26-1.26V707.8a16.33,16.33,0,0,1-4.757-1.952l-1.344,1.345a1.26,1.26,0,0,1-1.782,0l-3.564-3.564a1.26,1.26,0,0,1,0-1.782l1.353-1.352a16.329,16.329,0,0,1-1.946-4.795h-1.82a1.26,1.26,0,0,1-1.26-1.26V689.4a1.26,1.26,0,0,1,1.26-1.26h1.854a16.324,16.324,0,0,1,1.912-4.637l-1.353-1.353a1.26,1.26,0,0,1,0-1.782l3.564-3.563a1.26,1.26,0,0,1,1.782,0l1.344,1.344a16.33,16.33,0,0,1,4.757-1.952V674.36a1.261,1.261,0,0,1,1.26-1.261h5.04a1.261,1.261,0,0,1,1.26,1.261V676.2a16.368,16.368,0,0,1,4.716,1.928l1.431-1.431a1.26,1.26,0,0,1,1.782,0l3.564,3.564a1.26,1.26,0,0,1,0,1.782l-1.423,1.423a16.335,16.335,0,0,1,1.935,4.678h1.855a1.26,1.26,0,0,1,1.26,1.26v5.04Zm-5.645-3.642a13.255,13.255,0,0,0-2.978-7.255l2.229-2.228-1.773-1.773-2.225,2.226a13.25,13.25,0,0,0-7.261-3.018V675.62H348.74v3.133a13.232,13.232,0,0,0-7.249,3.034l-2.234-2.234-1.772,1.772,2.241,2.242a13.249,13.249,0,0,0-2.975,7.245h-3.19v2.507h3.2a13.241,13.241,0,0,0,3.026,7.19l-2.293,2.292,1.773,1.773,2.3-2.3a13.233,13.233,0,0,0,7.187,2.971V708.5h2.507v-3.252a13.247,13.247,0,0,0,7.185-2.979l2.3,2.3,1.773-1.773-2.293-2.293a13.24,13.24,0,0,0,3.021-7.194h3.2V690.8h-3.184ZM350,697.433A5.434,5.434,0,1,1,355.434,692,5.433,5.433,0,0,1,350,697.433Zm0-9.016A3.583,3.583,0,1,0,353.582,692,3.583,3.583,0,0,0,350,688.417Z" transform="translate(-331.094 -673.094)"/>
</svg>
