<svg xmlns="http://www.w3.org/2000/svg" width="16.03" height="16" viewBox="0 0 16.03 16">
  <defs>
    <style>
      .cls-1 {
        fill: #fff;
        fill-rule: evenodd;
      }
    </style>
  </defs>
  <path class="cls-1" d="M1243.86,1396.49c0,0.03-.01.06-0.01,0.09-0.05.21-.1,0.42-0.16,0.63-0.01.03-.02,0.07-0.03,0.1a5.529,5.529,0,0,1-.22.65c0,0.01-.01.01-0.01,0.02a7.964,7.964,0,0,1-4.55,4.48,0.01,0.01,0,0,1-.01.01c-0.16.06-.32,0.12-0.47,0.16-0.12.04-.25,0.07-0.37,0.11s-0.23.06-.35,0.08-0.23.05-.35,0.07c-0.1.01-.2,0.03-0.3,0.04-0.12.02-.25,0.03-0.37,0.04a0.757,0.757,0,0,1-.15.01,7.631,7.631,0,0,1-.83.01,1.927,1.927,0,0,1-.24-0.01c-0.14-.01-0.28-0.02-0.42-0.04l-0.21-.03a8.519,8.519,0,0,1-1.41-.34c-0.05-.02-0.11-0.04-0.17-0.06-0.14-.06-0.29-0.12-0.44-0.18a0.925,0.925,0,0,1-.1-0.05,6.99,6.99,0,0,1-1.39-.81c-0.03-.02-0.05-0.04-0.08-0.06a7.854,7.854,0,0,1-.89-0.75,8,8,0,0,1-2.19-7.16c0.01-.03.01-0.05,0.02-0.08,0.04-.22.09-0.43,0.15-0.64,0.01-.03.02-0.06,0.03-0.1,0.07-.22.14-0.43,0.22-0.65a0.01,0.01,0,0,0,.01-0.01,8,8,0,0,1,4.56-4.49,0.01,0.01,0,0,1,.01-0.01c0.13-.05.27-0.1,0.41-0.14s0.3-.09.45-0.13c0.1-.03.21-0.05,0.31-0.08,0.13-.02.25-0.05,0.37-0.07a2.358,2.358,0,0,0,.28-0.04,7.972,7.972,0,0,1,1.38-.06,1.477,1.477,0,0,0,.21.01c0.15,0.01.3,0.03,0.44,0.04,0.06,0.01.12,0.02,0.17,0.03a7.513,7.513,0,0,1,1.47.36,0.564,0.564,0,0,1,.12.04c0.16,0.06.32,0.12,0.47,0.19,0.02,0.01.04,0.01,0.06,0.02a8.715,8.715,0,0,1,1.44.84c0.02,0.01.04,0.03,0.06,0.04A7.908,7.908,0,0,1,1243.86,1396.49Zm-2.06-2.01-0.03-.24a5.1,5.1,0,0,0-.15-0.76c-0.02-.06-0.04-0.13-0.06-0.2a3.808,3.808,0,0,0-.15-0.44c-0.02-.05-0.05-0.11-0.07-0.16a6.652,6.652,0,0,0-.39-0.75c-0.04-.06-0.08-0.13-0.12-0.19-0.09-.12-0.18-0.25-0.27-0.37-0.06-.07-0.12-0.14-0.18-0.2-0.09-.1-0.17-0.2-0.26-0.29a5.763,5.763,0,0,0-2.11-1.35c-0.01,0-.02-0.01-0.03-0.01a5.887,5.887,0,0,0-1.54-.33,0.308,0.308,0,0,1-.1-0.01q-0.33-.015-0.66,0a0.615,0.615,0,0,1-.14.01,5.617,5.617,0,0,0-.7.1c-0.06.01-.12,0.03-0.18,0.04a4.444,4.444,0,0,0-.52.15,5.751,5.751,0,0,0-2.25,1.4,5.664,5.664,0,0,0-1.37,2.18c-0.05.14-.1,0.29-0.14,0.45-0.03.1-.05,0.2-0.07,0.3a4.011,4.011,0,0,0-.08.5c-0.02.15-.03,0.3-0.04,0.46,0,0.11-.01.22,0,0.34a2.549,2.549,0,0,0,.02.39,2.66,2.66,0,0,0,.03.28,6.1,6.1,0,0,0,.14.72c0.02,0.07.04,0.15,0.06,0.22,0.05,0.14.1,0.29,0.15,0.43a1.417,1.417,0,0,1,.08.18,5.716,5.716,0,0,0,.39.73,1.992,1.992,0,0,0,.12.19,3.176,3.176,0,0,0,.27.37c0.05,0.07.12,0.14,0.18,0.21l0.26,0.29a5.83,5.83,0,0,0,2.1,1.34,0.147,0.147,0,0,1,.04.02,5.869,5.869,0,0,0,1.54.32,0.277,0.277,0,0,0,.09.01c0.23,0.01.45,0.01,0.67,0a0.615,0.615,0,0,0,.13-0.01,5.516,5.516,0,0,0,.71-0.1,0.749,0.749,0,0,0,.16-0.04,4.775,4.775,0,0,0,.54-0.15,5.753,5.753,0,0,0,3.62-3.58c0.05-.14.09-0.29,0.13-0.44,0.03-.1.06-0.21,0.08-0.31a3.808,3.808,0,0,0,.07-0.47,4.21,4.21,0,0,0,.04-0.5c0.01-.1.01-0.21,0.01-0.32C1241.82,1394.76,1241.81,1394.62,1241.8,1394.48Zm-6.68-1.4,1.73-.02,0.07,6.53-1.73.02Zm-0.03-2.49,1.73-.01,0.02,1.59-1.73.02Z" transform="translate(-1228 -1387)"/>
</svg>
