<svg xmlns="http://www.w3.org/2000/svg" xmlns:xlink="http://www.w3.org/1999/xlink" width="36.312" height="36.312" viewBox="0 0 36.312 36.312">
  <defs>
    <style>
      .cls-1 {
        fill-rule: evenodd;
        filter: url(#filter);
      }
    </style>
    <filter id="filter" x="633.844" y="672.844" width="36.312" height="36.312" filterUnits="userSpaceOnUse">
      <feFlood result="flood" flood-color="#a1f1ff"/>
      <feComposite result="composite" operator="in" in2="SourceGraphic"/>
      <feBlend result="blend" in2="SourceGraphic"/>
    </filter>
  </defs>
  <path id="LineChart_copy" data-name="LineChart copy" class="cls-1" d="M669.01,709.144H634.99a1.134,1.134,0,0,1-1.134-1.134V673.99a1.134,1.134,0,0,1,2.268,0v32.886H652v-1.134h1.134v1.134H663.34v-3.4h1.134v3.4h4.536A1.134,1.134,0,0,1,669.01,709.144Zm-5.67-22.68h1.134v3.4H663.34v-3.4Zm1.134,14.741H663.34v-3.4h1.134v3.4Zm-1.134-9.071h1.134v3.4H663.34v-3.4Zm-10.206,11.34H652v-3.4h1.134v3.4ZM652,694.4h1.134v3.4H652v-3.4Zm-10.206,11.34H640.66v-3.4h1.134v3.4Zm22.68-23.836v2.29H663.34V682h0a2.315,2.315,0,0,1-1.248-.367l-7.434,8.378a2.309,2.309,0,0,1-3.569,2.767l-7.074,2.79a2.827,2.827,0,0,1-2.221,2.156v2.35H640.66v-2.308a2.852,2.852,0,1,1,2.973-4.315l6.629-2.615a2.3,2.3,0,0,1,3.339-1.9l7.541-8.5A2.333,2.333,0,0,1,661,679.66a2.4,2.4,0,0,1,.046-0.46c0-.036-0.011-0.071-0.011-0.107A2.871,2.871,0,1,1,664.474,681.906Zm-22.538,12.558a0.87,0.87,0,0,0-.709-0.381,0.886,0.886,0,1,0,0,1.772,0.871,0.871,0,0,0,.709-0.382v-1.009Zm21.971-16.257a0.886,0.886,0,1,0,.886.886A0.886,0.886,0,0,0,663.907,678.207Z" transform="translate(-633.844 -672.844)"/>
</svg>
