<svg xmlns="http://www.w3.org/2000/svg" xmlns:xlink="http://www.w3.org/1999/xlink" width="24.781" height="24.78" viewBox="0 0 24.781 24.78">
  <metadata><?xpacket begin="﻿" id="W5M0MpCehiHzreSzNTczkc9d"?>
<x:xmpmeta xmlns:x="adobe:ns:meta/" x:xmptk="Adobe XMP Core 5.6-c142 79.160924, 2017/07/13-01:06:39        ">
   <rdf:RDF xmlns:rdf="http://www.w3.org/1999/02/22-rdf-syntax-ns#">
      <rdf:Description rdf:about=""/>
   </rdf:RDF>
</x:xmpmeta>
                                                                                                    
                                                                                                    
                                                                                                    
                                                                                                    
                                                                                                    
                                                                                                    
                                                                                                    
                                                                                                    
                                                                                                    
                                                                                                    
                                                                                                    
                                                                                                    
                                                                                                    
                                                                                                    
                                                                                                    
                                                                                                    
                                                                                                    
                                                                                                    
                                                                                                    
                                                                                                    
                           
<?xpacket end="w"?></metadata>
<defs>
    <style>
      .cls-1 {
        fill-rule: evenodd;
        filter: url(#filter);
      }
    </style>
    <filter id="filter" x="362.625" y="1119.63" width="24.781" height="24.78" filterUnits="userSpaceOnUse">
      <feFlood result="flood" flood-color="#fff"/>
      <feComposite result="composite" operator="in" in2="SourceGraphic"/>
      <feBlend result="blend" in2="SourceGraphic"/>
    </filter>
  </defs>
  <path id="Link_copy" data-name="Link copy" class="cls-1" d="M386.924,1126.61l-6.534,6.53a1.543,1.543,0,0,1-2.178,0l-0.643-.64-2.069,2.07,0.644,0.64a1.543,1.543,0,0,1,0,2.18l-6.534,6.53a1.543,1.543,0,0,1-2.178,0l-4.356-4.35a1.543,1.543,0,0,1,0-2.18l6.534-6.53a1.525,1.525,0,0,1,2.178,0l0.691,0.69,2.068-2.07-0.691-.69a1.543,1.543,0,0,1,0-2.18l6.534-6.53a1.525,1.525,0,0,1,2.178,0l4.356,4.35A1.543,1.543,0,0,1,386.924,1126.61Zm-15.681,5.88a0.771,0.771,0,0,0-1.089,0l-5.444,5.44a0.771,0.771,0,0,0,0,1.09l3.266,3.27a0.771,0.771,0,0,0,1.089,0l5.445-5.44a0.771,0.771,0,0,0,0-1.09l-0.544-.55-2.219,2.22a0.771,0.771,0,0,1-1.089,0l-1.089-1.09a0.771,0.771,0,0,1,0-1.09l2.219-2.22Zm-0.743,2.97a0.5,0.5,0,0,0,0,.71l0.33,0.33a0.5,0.5,0,0,0,.71,0l8.345-8.35a0.49,0.49,0,0,0,0-.7l-0.331-.34a0.512,0.512,0,0,0-.709,0Zm14.79-10.48-3.267-3.27a0.771,0.771,0,0,0-1.089,0l-5.444,5.44a0.771,0.771,0,0,0,0,1.09l0.544,0.55,2.6-2.61a0.771,0.771,0,0,1,1.089,0l1.089,1.09a0.771,0.771,0,0,1,0,1.09l-2.6,2.61,0.544,0.54a0.771,0.771,0,0,0,1.089,0l5.445-5.44A0.771,0.771,0,0,0,385.29,1124.98Z" transform="translate(-362.625 -1119.63)"/>
</svg>
