<svg xmlns="http://www.w3.org/2000/svg" xmlns:xlink="http://www.w3.org/1999/xlink" width="22.313" height="22.31" viewBox="0 0 22.313 22.31">
  <metadata><?xpacket begin="﻿" id="W5M0MpCehiHzreSzNTczkc9d"?>
<x:xmpmeta xmlns:x="adobe:ns:meta/" x:xmptk="Adobe XMP Core 5.6-c142 79.160924, 2017/07/13-01:06:39        ">
   <rdf:RDF xmlns:rdf="http://www.w3.org/1999/02/22-rdf-syntax-ns#">
      <rdf:Description rdf:about=""/>
   </rdf:RDF>
</x:xmpmeta>
                                                                                                    
                                                                                                    
                                                                                                    
                                                                                                    
                                                                                                    
                                                                                                    
                                                                                                    
                                                                                                    
                                                                                                    
                                                                                                    
                                                                                                    
                                                                                                    
                                                                                                    
                                                                                                    
                                                                                                    
                                                                                                    
                                                                                                    
                                                                                                    
                                                                                                    
                                                                                                    
                           
<?xpacket end="w"?></metadata>
<defs>
    <style>
      .cls-1 {
        fill-rule: evenodd;
        filter: url(#filter);
      }
    </style>
    <filter id="filter" x="439.75" y="1119.75" width="22.313" height="22.31" filterUnits="userSpaceOnUse">
      <feFlood result="flood" flood-color="#fff"/>
      <feComposite result="composite" operator="in" in2="SourceGraphic"/>
      <feBlend result="blend" in2="SourceGraphic"/>
    </filter>
  </defs>
  <path id="Search_copy" data-name="Search copy" class="cls-1" d="M461.64,1138.62a1.4,1.4,0,0,1,0,1.98l-1.04,1.04a1.394,1.394,0,0,1-1.98,0l-4.685-4.69a1.259,1.259,0,0,1-.206-0.31,9.137,9.137,0,1,1,2.916-2.91,1.339,1.339,0,0,1,.309.2Zm-5.092-9.72a7.652,7.652,0,1,0-2.782,5.9l5.429,5.43a0.706,0.706,0,0,0,.99,0,0.7,0.7,0,0,0,0-.99l-5.426-5.43A7.615,7.615,0,0,0,456.548,1128.9Zm-2.863-.01a4.779,4.779,0,0,0-4.784-4.77h-0.009v-0.86H448.9a5.636,5.636,0,0,1,5.635,5.63h-0.85Z" transform="translate(-439.75 -1119.75)"/>
</svg>
