<svg xmlns="http://www.w3.org/2000/svg" width="63" height="36.91" viewBox="0 0 63 36.91">
  <metadata><?xpacket begin="﻿" id="W5M0MpCehiHzreSzNTczkc9d"?>
<x:xmpmeta xmlns:x="adobe:ns:meta/" x:xmptk="Adobe XMP Core 5.6-c142 79.160924, 2017/07/13-01:06:39        ">
   <rdf:RDF xmlns:rdf="http://www.w3.org/1999/02/22-rdf-syntax-ns#">
      <rdf:Description rdf:about=""/>
   </rdf:RDF>
</x:xmpmeta>
                                                                                                    
                                                                                                    
                                                                                                    
                                                                                                    
                                                                                                    
                                                                                                    
                                                                                                    
                                                                                                    
                                                                                                    
                                                                                                    
                                                                                                    
                                                                                                    
                                                                                                    
                                                                                                    
                                                                                                    
                                                                                                    
                                                                                                    
                                                                                                    
                                                                                                    
                                                                                                    
                           
<?xpacket end="w"?></metadata>
<defs>
    <style>
      .cls-1 {
        fill: #e1f5ff;
        fill-rule: evenodd;
      }
    </style>
  </defs>
  <path class="cls-1" d="M306,3563.71c-0.688-1.44-4.29-2.46-5.387-2.74a20.2,20.2,0,0,0-6.092-9.39,9.8,9.8,0,0,0-2.159-1.34,16.071,16.071,0,0,1,3.353-.78,14.033,14.033,0,0,0-10.091.5,16.732,16.732,0,0,0-7.575,5.48,38.455,38.455,0,0,0-2.975,4.36c-1.787-1.18-15.788-10.26-21.628-7.48a3.488,3.488,0,0,0,.029.35c1.342,0.8,3.692,2.42,4.441,4.21a13.8,13.8,0,0,0-3.078-.03c0.051,0.1.1,0.21,0.157,0.31a65.961,65.961,0,0,1,7.811,6.42,7.38,7.38,0,0,0-2.918.25c0.054,0.05.107,0.11,0.162,0.17a22.582,22.582,0,0,1,8.451,6.88,18.77,18.77,0,0,1-6.916,6.04c-5.627,2.53-12.937,1.3-18.585-.66a60.676,60.676,0,0,0,8.8,4.9c9.43,4.25,20.221,5.84,30.3,3.13,7.053-1.89,14.364-6.1,17.7-12.91a14.114,14.114,0,0,0,1.493-6.63A15.5,15.5,0,0,1,306,3563.71Zm-14.531-2.62a2.905,2.905,0,1,1,2.887-2.91A2.9,2.9,0,0,1,291.469,3561.09Z" transform="translate(-243 -3548.72)"/>
</svg>
