<svg xmlns="http://www.w3.org/2000/svg" xmlns:xlink="http://www.w3.org/1999/xlink" width="32.75" height="37.469" viewBox="0 0 32.75 37.469">
  <defs>
    <style>
      .cls-1 {
        fill-rule: evenodd;
        filter: url(#filter);
      }
    </style>
    <filter id="filter" x="933.625" y="673.25" width="32.75" height="37.469" filterUnits="userSpaceOnUse">
      <feFlood result="flood" flood-color="#a1f1ff"/>
      <feComposite result="composite" operator="in" in2="SourceGraphic"/>
      <feBlend result="blend" in2="SourceGraphic"/>
    </filter>
  </defs>
  <path id="Community_copy" data-name="Community copy" class="cls-1" d="M964.04,697.852v7.02a2.34,2.34,0,0,1-2.34,2.34h-4.68a2.316,2.316,0,0,1-1.17-.324v1.494a2.34,2.34,0,0,1-2.34,2.34h-7.02a2.339,2.339,0,0,1-2.34-2.34v-1.494a2.319,2.319,0,0,1-1.17.324H938.3a2.34,2.34,0,0,1-2.34-2.34v-7.02a2.339,2.339,0,0,1-2.34-2.34v-9.36a2.34,2.34,0,0,1,2.34-2.34h28.08a2.34,2.34,0,0,1,2.34,2.34v9.36A2.34,2.34,0,0,1,964.04,697.852Zm-22.23-1.17v-10.53h-4.68a1.17,1.17,0,0,0-1.17,1.17v7.02a1.17,1.17,0,0,0,1.17,1.17v-5.265a0.585,0.585,0,0,1,1.17,0V703.7a1.17,1.17,0,0,0,1.17,1.17h2.34a1.17,1.17,0,0,0,1.17-1.17v-5A2.331,2.331,0,0,1,941.81,696.682Zm15.21-9.36a1.17,1.17,0,0,0-1.17-1.17h-11.7a1.17,1.17,0,0,0-1.17,1.17v8.19a1.17,1.17,0,0,0,1.17,1.17h1.17v-6.435a0.585,0.585,0,1,1,1.17,0v16.965a1.17,1.17,0,0,0,1.17,1.17h4.68a1.17,1.17,0,0,0,1.17-1.17V690.247a0.585,0.585,0,1,1,1.17,0v6.435h1.17a1.17,1.17,0,0,0,1.17-1.17v-8.19Zm7.02,0a1.17,1.17,0,0,0-1.17-1.17h-4.68v10.53a2.333,2.333,0,0,1-1.17,2.016v5a1.17,1.17,0,0,0,1.17,1.17h2.34a1.17,1.17,0,0,0,1.17-1.17V690.247a0.585,0.585,0,1,1,1.17,0v5.265a1.17,1.17,0,0,0,1.17-1.17v-7.02Zm-4.68-4.351a3.839,3.839,0,1,1,3.839-3.839A3.839,3.839,0,0,1,959.36,682.971Zm0-5.777a1.938,1.938,0,1,0,1.938,1.938A1.938,1.938,0,0,0,959.36,677.194ZM950,682.679a4.717,4.717,0,1,1,4.716-4.717A4.717,4.717,0,0,1,950,682.679Zm0-7.093a2.377,2.377,0,1,0,2.376,2.376A2.377,2.377,0,0,0,950,675.586Zm-9.36,7.385a3.839,3.839,0,1,1,3.839-3.839A3.839,3.839,0,0,1,940.64,682.971Zm0-5.777a1.938,1.938,0,1,0,1.938,1.938A1.938,1.938,0,0,0,940.64,677.194Z" transform="translate(-933.625 -673.25)"/>
</svg>
